<mxfile host="app.diagrams.net" agent="Mozilla/5.0 (Macintosh; Intel Mac OS X 10_15_7) AppleWebKit/605.1.15 (KHTML, like Gecko) Version/17.4 Safari/605.1.15" version="24.7.7">
  <diagram name="Page-1" id="Zq5fv1HOPL2yijvJN5Za">
    <mxGraphModel dx="1968" dy="1204" grid="1" gridSize="10" guides="1" tooltips="1" connect="1" arrows="1" fold="1" page="1" pageScale="1" pageWidth="827" pageHeight="1169" math="0" shadow="0">
      <root>
        <mxCell id="0" />
        <mxCell id="1" parent="0" />
        <mxCell id="-fmFSv4kXS4S-FmU5y-E-22" style="edgeStyle=orthogonalEdgeStyle;rounded=0;orthogonalLoop=1;jettySize=auto;html=1;exitX=0.5;exitY=1;exitDx=0;exitDy=0;exitPerimeter=0;" edge="1" parent="1" source="-fmFSv4kXS4S-FmU5y-E-21" target="-fmFSv4kXS4S-FmU5y-E-2">
          <mxGeometry relative="1" as="geometry" />
        </mxCell>
        <mxCell id="-fmFSv4kXS4S-FmU5y-E-2" value="" style="outlineConnect=0;dashed=0;verticalLabelPosition=bottom;verticalAlign=top;align=center;html=1;shape=mxgraph.aws3.ec2;fillColor=#F58534;gradientColor=none;" vertex="1" parent="1">
          <mxGeometry x="384" y="110" width="60" height="60" as="geometry" />
        </mxCell>
        <mxCell id="-fmFSv4kXS4S-FmU5y-E-3" value="" style="outlineConnect=0;dashed=0;verticalLabelPosition=bottom;verticalAlign=top;align=center;html=1;shape=mxgraph.aws3.aws_iot;fillColor=#5294CF;gradientColor=none;" vertex="1" parent="1">
          <mxGeometry x="174" y="200" width="50" height="60" as="geometry" />
        </mxCell>
        <mxCell id="-fmFSv4kXS4S-FmU5y-E-4" value="" style="outlineConnect=0;dashed=0;verticalLabelPosition=bottom;verticalAlign=top;align=center;html=1;shape=mxgraph.aws3.aws_iot;fillColor=#5294CF;gradientColor=none;" vertex="1" parent="1">
          <mxGeometry x="254" y="200" width="50" height="60" as="geometry" />
        </mxCell>
        <mxCell id="-fmFSv4kXS4S-FmU5y-E-5" value="" style="outlineConnect=0;dashed=0;verticalLabelPosition=bottom;verticalAlign=top;align=center;html=1;shape=mxgraph.aws3.aws_iot;fillColor=#5294CF;gradientColor=none;" vertex="1" parent="1">
          <mxGeometry x="334" y="200" width="50" height="60" as="geometry" />
        </mxCell>
        <mxCell id="-fmFSv4kXS4S-FmU5y-E-6" value="" style="outlineConnect=0;dashed=0;verticalLabelPosition=bottom;verticalAlign=top;align=center;html=1;shape=mxgraph.aws3.aws_iot;fillColor=#5294CF;gradientColor=none;" vertex="1" parent="1">
          <mxGeometry x="604" y="200" width="50" height="60" as="geometry" />
        </mxCell>
        <mxCell id="-fmFSv4kXS4S-FmU5y-E-7" value="" style="outlineConnect=0;dashed=0;verticalLabelPosition=bottom;verticalAlign=top;align=center;html=1;shape=mxgraph.aws3.aws_iot;fillColor=#5294CF;gradientColor=none;" vertex="1" parent="1">
          <mxGeometry x="440" y="200" width="50" height="60" as="geometry" />
        </mxCell>
        <mxCell id="-fmFSv4kXS4S-FmU5y-E-8" value="" style="outlineConnect=0;dashed=0;verticalLabelPosition=bottom;verticalAlign=top;align=center;html=1;shape=mxgraph.aws3.aws_iot;fillColor=#5294CF;gradientColor=none;" vertex="1" parent="1">
          <mxGeometry x="524" y="200" width="50" height="60" as="geometry" />
        </mxCell>
        <mxCell id="-fmFSv4kXS4S-FmU5y-E-13" style="edgeStyle=orthogonalEdgeStyle;rounded=0;orthogonalLoop=1;jettySize=auto;html=1;exitX=0.5;exitY=0;exitDx=0;exitDy=0;exitPerimeter=0;entryX=0.5;entryY=1;entryDx=0;entryDy=0;entryPerimeter=0;" edge="1" parent="1" source="-fmFSv4kXS4S-FmU5y-E-7" target="-fmFSv4kXS4S-FmU5y-E-2">
          <mxGeometry relative="1" as="geometry">
            <Array as="points">
              <mxPoint x="448" y="170" />
            </Array>
          </mxGeometry>
        </mxCell>
        <mxCell id="-fmFSv4kXS4S-FmU5y-E-14" style="edgeStyle=orthogonalEdgeStyle;rounded=0;orthogonalLoop=1;jettySize=auto;html=1;exitX=0.5;exitY=0;exitDx=0;exitDy=0;exitPerimeter=0;entryX=0;entryY=0.79;entryDx=0;entryDy=0;entryPerimeter=0;" edge="1" parent="1" source="-fmFSv4kXS4S-FmU5y-E-4" target="-fmFSv4kXS4S-FmU5y-E-2">
          <mxGeometry relative="1" as="geometry" />
        </mxCell>
        <mxCell id="-fmFSv4kXS4S-FmU5y-E-15" style="edgeStyle=orthogonalEdgeStyle;rounded=0;orthogonalLoop=1;jettySize=auto;html=1;exitX=0.5;exitY=0;exitDx=0;exitDy=0;exitPerimeter=0;entryX=0;entryY=0.5;entryDx=0;entryDy=0;entryPerimeter=0;" edge="1" parent="1" source="-fmFSv4kXS4S-FmU5y-E-3" target="-fmFSv4kXS4S-FmU5y-E-2">
          <mxGeometry relative="1" as="geometry">
            <Array as="points">
              <mxPoint x="239" y="140" />
            </Array>
          </mxGeometry>
        </mxCell>
        <mxCell id="-fmFSv4kXS4S-FmU5y-E-16" style="edgeStyle=orthogonalEdgeStyle;rounded=0;orthogonalLoop=1;jettySize=auto;html=1;exitX=0.5;exitY=0;exitDx=0;exitDy=0;exitPerimeter=0;entryX=1;entryY=0.79;entryDx=0;entryDy=0;entryPerimeter=0;" edge="1" parent="1" source="-fmFSv4kXS4S-FmU5y-E-8" target="-fmFSv4kXS4S-FmU5y-E-2">
          <mxGeometry relative="1" as="geometry" />
        </mxCell>
        <mxCell id="-fmFSv4kXS4S-FmU5y-E-17" style="edgeStyle=orthogonalEdgeStyle;rounded=0;orthogonalLoop=1;jettySize=auto;html=1;exitX=0.5;exitY=0;exitDx=0;exitDy=0;exitPerimeter=0;entryX=1;entryY=0.5;entryDx=0;entryDy=0;entryPerimeter=0;" edge="1" parent="1" source="-fmFSv4kXS4S-FmU5y-E-6" target="-fmFSv4kXS4S-FmU5y-E-2">
          <mxGeometry relative="1" as="geometry" />
        </mxCell>
        <mxCell id="-fmFSv4kXS4S-FmU5y-E-20" value="Omnidirectional microphone array" style="text;strokeColor=none;align=center;fillColor=none;html=1;verticalAlign=middle;whiteSpace=wrap;rounded=0;" vertex="1" parent="1">
          <mxGeometry x="319" y="260" width="190" height="30" as="geometry" />
        </mxCell>
        <mxCell id="-fmFSv4kXS4S-FmU5y-E-21" value="Start" style="strokeWidth=2;html=1;shape=mxgraph.flowchart.terminator;whiteSpace=wrap;" vertex="1" parent="1">
          <mxGeometry x="383" y="20" width="78" height="40" as="geometry" />
        </mxCell>
        <mxCell id="-fmFSv4kXS4S-FmU5y-E-19" value="FPGA Processing Unit" style="text;strokeColor=none;align=center;fillColor=none;html=1;verticalAlign=middle;whiteSpace=wrap;rounded=0;movable=1;resizable=1;rotatable=1;deletable=1;editable=1;locked=0;connectable=1;" vertex="1" parent="1">
          <mxGeometry x="346" y="80" width="136" height="30" as="geometry" />
        </mxCell>
        <mxCell id="-fmFSv4kXS4S-FmU5y-E-23" value="" style="outlineConnect=0;dashed=0;verticalLabelPosition=bottom;verticalAlign=top;align=center;html=1;shape=mxgraph.aws3.lambda;fillColor=#F58534;gradientColor=none;" vertex="1" parent="1">
          <mxGeometry x="389" y="300" width="50" height="60" as="geometry" />
        </mxCell>
        <mxCell id="-fmFSv4kXS4S-FmU5y-E-24" style="edgeStyle=orthogonalEdgeStyle;rounded=0;orthogonalLoop=1;jettySize=auto;html=1;exitX=0.5;exitY=0;exitDx=0;exitDy=0;exitPerimeter=0;entryX=0.198;entryY=0.906;entryDx=0;entryDy=0;entryPerimeter=0;" edge="1" parent="1" source="-fmFSv4kXS4S-FmU5y-E-5" target="-fmFSv4kXS4S-FmU5y-E-2">
          <mxGeometry relative="1" as="geometry" />
        </mxCell>
        <mxCell id="-fmFSv4kXS4S-FmU5y-E-26" style="edgeStyle=orthogonalEdgeStyle;rounded=0;orthogonalLoop=1;jettySize=auto;html=1;exitX=0.5;exitY=1;exitDx=0;exitDy=0;exitPerimeter=0;entryX=0.5;entryY=0;entryDx=0;entryDy=0;entryPerimeter=0;" edge="1" parent="1" source="-fmFSv4kXS4S-FmU5y-E-2" target="-fmFSv4kXS4S-FmU5y-E-23">
          <mxGeometry relative="1" as="geometry" />
        </mxCell>
        <mxCell id="-fmFSv4kXS4S-FmU5y-E-27" value="Analog to Digital convertor (ADC)" style="text;strokeColor=none;align=center;fillColor=none;html=1;verticalAlign=middle;whiteSpace=wrap;rounded=0;" vertex="1" parent="1">
          <mxGeometry x="450" y="315" width="180" height="30" as="geometry" />
        </mxCell>
        <mxCell id="-fmFSv4kXS4S-FmU5y-E-35" style="edgeStyle=orthogonalEdgeStyle;rounded=0;orthogonalLoop=1;jettySize=auto;html=1;exitX=0.5;exitY=1;exitDx=0;exitDy=0;exitPerimeter=0;" edge="1" parent="1" source="-fmFSv4kXS4S-FmU5y-E-28" target="-fmFSv4kXS4S-FmU5y-E-33">
          <mxGeometry relative="1" as="geometry" />
        </mxCell>
        <mxCell id="-fmFSv4kXS4S-FmU5y-E-28" value="" style="outlineConnect=0;dashed=0;verticalLabelPosition=bottom;verticalAlign=top;align=center;html=1;shape=mxgraph.aws3.step_functions;fillColor=#D9A741;gradientColor=none;" vertex="1" parent="1">
          <mxGeometry x="387" y="410" width="52.5" height="60" as="geometry" />
        </mxCell>
        <mxCell id="-fmFSv4kXS4S-FmU5y-E-30" value="Bandpass Filter(3Khz)" style="text;strokeColor=none;align=center;fillColor=none;html=1;verticalAlign=middle;whiteSpace=wrap;rounded=0;" vertex="1" parent="1">
          <mxGeometry x="436.5" y="425" width="160" height="30" as="geometry" />
        </mxCell>
        <mxCell id="-fmFSv4kXS4S-FmU5y-E-31" style="edgeStyle=orthogonalEdgeStyle;rounded=0;orthogonalLoop=1;jettySize=auto;html=1;exitX=0.5;exitY=1;exitDx=0;exitDy=0;exitPerimeter=0;entryX=0.5;entryY=0;entryDx=0;entryDy=0;entryPerimeter=0;" edge="1" parent="1" source="-fmFSv4kXS4S-FmU5y-E-23" target="-fmFSv4kXS4S-FmU5y-E-28">
          <mxGeometry relative="1" as="geometry" />
        </mxCell>
        <mxCell id="-fmFSv4kXS4S-FmU5y-E-33" value="" style="outlineConnect=0;dashed=0;verticalLabelPosition=bottom;verticalAlign=top;align=center;html=1;shape=mxgraph.aws3.lambda;fillColor=#F58534;gradientColor=none;" vertex="1" parent="1">
          <mxGeometry x="388.25" y="510" width="50" height="60" as="geometry" />
        </mxCell>
        <mxCell id="-fmFSv4kXS4S-FmU5y-E-37" value="Sound Level Threshold Detection" style="text;strokeColor=none;align=center;fillColor=none;html=1;verticalAlign=middle;whiteSpace=wrap;rounded=0;" vertex="1" parent="1">
          <mxGeometry x="450" y="525" width="140" height="30" as="geometry" />
        </mxCell>
        <mxCell id="-fmFSv4kXS4S-FmU5y-E-47" style="edgeStyle=orthogonalEdgeStyle;rounded=0;orthogonalLoop=1;jettySize=auto;html=1;exitX=1;exitY=0.5;exitDx=0;exitDy=0;exitPerimeter=0;entryX=0;entryY=0.75;entryDx=0;entryDy=0;" edge="1" parent="1" source="-fmFSv4kXS4S-FmU5y-E-38" target="-fmFSv4kXS4S-FmU5y-E-46">
          <mxGeometry relative="1" as="geometry" />
        </mxCell>
        <mxCell id="-fmFSv4kXS4S-FmU5y-E-38" value="is it a gunshot?" style="strokeWidth=2;html=1;shape=mxgraph.flowchart.decision;whiteSpace=wrap;" vertex="1" parent="1">
          <mxGeometry x="361" y="610" width="106" height="80" as="geometry" />
        </mxCell>
        <mxCell id="-fmFSv4kXS4S-FmU5y-E-40" style="edgeStyle=orthogonalEdgeStyle;rounded=0;orthogonalLoop=1;jettySize=auto;html=1;exitX=0.5;exitY=1;exitDx=0;exitDy=0;exitPerimeter=0;entryX=0.5;entryY=0;entryDx=0;entryDy=0;entryPerimeter=0;" edge="1" parent="1" source="-fmFSv4kXS4S-FmU5y-E-33" target="-fmFSv4kXS4S-FmU5y-E-38">
          <mxGeometry relative="1" as="geometry" />
        </mxCell>
        <mxCell id="-fmFSv4kXS4S-FmU5y-E-41" value="" style="outlineConnect=0;dashed=0;verticalLabelPosition=bottom;verticalAlign=top;align=center;html=1;shape=mxgraph.aws3.elastic_load_balancing;fillColor=#F58534;gradientColor=none;" vertex="1" parent="1">
          <mxGeometry x="654" y="610" width="60" height="70" as="geometry" />
        </mxCell>
        <mxCell id="-fmFSv4kXS4S-FmU5y-E-44" value="Alert System" style="text;strokeColor=none;align=center;fillColor=none;html=1;verticalAlign=middle;whiteSpace=wrap;rounded=0;" vertex="1" parent="1">
          <mxGeometry x="714" y="635" width="100" height="30" as="geometry" />
        </mxCell>
        <mxCell id="-fmFSv4kXS4S-FmU5y-E-45" value="" style="outlineConnect=0;dashed=0;verticalLabelPosition=bottom;verticalAlign=top;align=center;html=1;shape=mxgraph.aws3.data_pipeline;fillColor=#F58534;gradientColor=none;" vertex="1" parent="1">
          <mxGeometry x="380.25" y="730" width="59.75" height="60" as="geometry" />
        </mxCell>
        <mxCell id="-fmFSv4kXS4S-FmU5y-E-48" style="edgeStyle=orthogonalEdgeStyle;rounded=0;orthogonalLoop=1;jettySize=auto;html=1;exitX=1;exitY=0.5;exitDx=0;exitDy=0;" edge="1" parent="1" source="-fmFSv4kXS4S-FmU5y-E-46">
          <mxGeometry relative="1" as="geometry">
            <mxPoint x="650" y="645.4444444444443" as="targetPoint" />
          </mxGeometry>
        </mxCell>
        <mxCell id="-fmFSv4kXS4S-FmU5y-E-49" style="edgeStyle=orthogonalEdgeStyle;rounded=0;orthogonalLoop=1;jettySize=auto;html=1;exitX=0.25;exitY=1;exitDx=0;exitDy=0;" edge="1" parent="1" source="-fmFSv4kXS4S-FmU5y-E-46" target="-fmFSv4kXS4S-FmU5y-E-45">
          <mxGeometry relative="1" as="geometry" />
        </mxCell>
        <mxCell id="-fmFSv4kXS4S-FmU5y-E-46" value="yes" style="rounded=0;whiteSpace=wrap;html=1;" vertex="1" parent="1">
          <mxGeometry x="539" y="635" width="41" height="20" as="geometry" />
        </mxCell>
        <mxCell id="-fmFSv4kXS4S-FmU5y-E-50" value="Localization algorithm" style="text;strokeColor=none;align=center;fillColor=none;html=1;verticalAlign=middle;whiteSpace=wrap;rounded=0;fontSize=14;" vertex="1" parent="1">
          <mxGeometry x="441.5" y="730" width="150" height="60" as="geometry" />
        </mxCell>
        <mxCell id="-fmFSv4kXS4S-FmU5y-E-51" value="" style="html=1;verticalLabelPosition=bottom;align=center;labelBackgroundColor=#ffffff;verticalAlign=top;strokeWidth=2;strokeColor=#0080F0;shadow=0;dashed=0;shape=mxgraph.ios7.icons.user;" vertex="1" parent="1">
          <mxGeometry x="383" y="820" width="50" height="50" as="geometry" />
        </mxCell>
        <mxCell id="-fmFSv4kXS4S-FmU5y-E-52" value="Graphical LCD display" style="text;strokeColor=none;align=center;fillColor=none;html=1;verticalAlign=middle;whiteSpace=wrap;rounded=0;" vertex="1" parent="1">
          <mxGeometry x="450" y="830" width="100" height="30" as="geometry" />
        </mxCell>
        <mxCell id="-fmFSv4kXS4S-FmU5y-E-53" style="edgeStyle=orthogonalEdgeStyle;rounded=0;orthogonalLoop=1;jettySize=auto;html=1;exitX=0.5;exitY=1;exitDx=0;exitDy=0;exitPerimeter=0;entryX=0.502;entryY=0.087;entryDx=0;entryDy=0;entryPerimeter=0;" edge="1" parent="1" source="-fmFSv4kXS4S-FmU5y-E-45" target="-fmFSv4kXS4S-FmU5y-E-51">
          <mxGeometry relative="1" as="geometry" />
        </mxCell>
        <mxCell id="-fmFSv4kXS4S-FmU5y-E-54" value="" style="outlineConnect=0;dashed=0;verticalLabelPosition=bottom;verticalAlign=top;align=center;html=1;shape=mxgraph.aws3.s3;fillColor=#E05243;gradientColor=none;" vertex="1" parent="1">
          <mxGeometry x="269" y="815" width="50" height="60" as="geometry" />
        </mxCell>
        <mxCell id="-fmFSv4kXS4S-FmU5y-E-55" value="Event logging" style="text;strokeColor=none;align=center;fillColor=none;html=1;verticalAlign=middle;whiteSpace=wrap;rounded=0;fontStyle=0" vertex="1" parent="1">
          <mxGeometry x="256" y="870" width="90" height="30" as="geometry" />
        </mxCell>
        <mxCell id="-fmFSv4kXS4S-FmU5y-E-56" style="edgeStyle=orthogonalEdgeStyle;rounded=0;orthogonalLoop=1;jettySize=auto;html=1;entryX=1;entryY=0.5;entryDx=0;entryDy=0;entryPerimeter=0;" edge="1" parent="1" source="-fmFSv4kXS4S-FmU5y-E-51" target="-fmFSv4kXS4S-FmU5y-E-54">
          <mxGeometry relative="1" as="geometry" />
        </mxCell>
        <mxCell id="-fmFSv4kXS4S-FmU5y-E-57" value="" style="outlineConnect=0;dashed=0;verticalLabelPosition=bottom;verticalAlign=top;align=center;html=1;shape=mxgraph.aws3.cloudwatch;fillColor=#759C3E;gradientColor=none;" vertex="1" parent="1">
          <mxGeometry x="150" y="815" width="60" height="60" as="geometry" />
        </mxCell>
        <mxCell id="-fmFSv4kXS4S-FmU5y-E-59" value="Monitoring" style="text;strokeColor=none;align=center;fillColor=none;html=1;verticalAlign=middle;whiteSpace=wrap;rounded=0;" vertex="1" parent="1">
          <mxGeometry x="150" y="870" width="60" height="30" as="geometry" />
        </mxCell>
        <mxCell id="-fmFSv4kXS4S-FmU5y-E-61" style="edgeStyle=orthogonalEdgeStyle;rounded=0;orthogonalLoop=1;jettySize=auto;html=1;entryX=0.75;entryY=0.5;entryDx=0;entryDy=0;entryPerimeter=0;" edge="1" parent="1" source="-fmFSv4kXS4S-FmU5y-E-54" target="-fmFSv4kXS4S-FmU5y-E-57">
          <mxGeometry relative="1" as="geometry" />
        </mxCell>
        <mxCell id="-fmFSv4kXS4S-FmU5y-E-66" value="" style="edgeStyle=orthogonalEdgeStyle;rounded=0;orthogonalLoop=1;jettySize=auto;html=1;" edge="1" parent="1" source="-fmFSv4kXS4S-FmU5y-E-62" target="-fmFSv4kXS4S-FmU5y-E-64">
          <mxGeometry relative="1" as="geometry" />
        </mxCell>
        <mxCell id="-fmFSv4kXS4S-FmU5y-E-72" value="" style="edgeStyle=orthogonalEdgeStyle;rounded=0;orthogonalLoop=1;jettySize=auto;html=1;" edge="1" parent="1" source="-fmFSv4kXS4S-FmU5y-E-62" target="-fmFSv4kXS4S-FmU5y-E-65">
          <mxGeometry relative="1" as="geometry" />
        </mxCell>
        <mxCell id="-fmFSv4kXS4S-FmU5y-E-62" value="Continue Monitoring?" style="strokeWidth=2;html=1;shape=mxgraph.flowchart.decision;whiteSpace=wrap;" vertex="1" parent="1">
          <mxGeometry x="130" y="950" width="100" height="80" as="geometry" />
        </mxCell>
        <mxCell id="-fmFSv4kXS4S-FmU5y-E-63" style="edgeStyle=orthogonalEdgeStyle;rounded=0;orthogonalLoop=1;jettySize=auto;html=1;entryX=0.5;entryY=0;entryDx=0;entryDy=0;entryPerimeter=0;" edge="1" parent="1" source="-fmFSv4kXS4S-FmU5y-E-59" target="-fmFSv4kXS4S-FmU5y-E-62">
          <mxGeometry relative="1" as="geometry" />
        </mxCell>
        <mxCell id="-fmFSv4kXS4S-FmU5y-E-71" style="edgeStyle=orthogonalEdgeStyle;rounded=0;orthogonalLoop=1;jettySize=auto;html=1;exitX=0.5;exitY=0;exitDx=0;exitDy=0;entryX=0.182;entryY=0.95;entryDx=0;entryDy=0;entryPerimeter=0;" edge="1" parent="1" source="-fmFSv4kXS4S-FmU5y-E-64" target="-fmFSv4kXS4S-FmU5y-E-67">
          <mxGeometry relative="1" as="geometry">
            <mxPoint x="80" y="320" as="targetPoint" />
          </mxGeometry>
        </mxCell>
        <mxCell id="-fmFSv4kXS4S-FmU5y-E-64" value="YES" style="rounded=0;whiteSpace=wrap;html=1;" vertex="1" parent="1">
          <mxGeometry x="60" y="980" width="36" height="20" as="geometry" />
        </mxCell>
        <mxCell id="-fmFSv4kXS4S-FmU5y-E-74" value="" style="edgeStyle=orthogonalEdgeStyle;rounded=0;orthogonalLoop=1;jettySize=auto;html=1;" edge="1" parent="1" source="-fmFSv4kXS4S-FmU5y-E-65" target="-fmFSv4kXS4S-FmU5y-E-73">
          <mxGeometry relative="1" as="geometry" />
        </mxCell>
        <mxCell id="-fmFSv4kXS4S-FmU5y-E-65" value="NO" style="rounded=0;whiteSpace=wrap;html=1;" vertex="1" parent="1">
          <mxGeometry x="162" y="1060" width="36" height="20" as="geometry" />
        </mxCell>
        <mxCell id="-fmFSv4kXS4S-FmU5y-E-68" style="edgeStyle=orthogonalEdgeStyle;rounded=0;orthogonalLoop=1;jettySize=auto;html=1;" edge="1" parent="1" source="-fmFSv4kXS4S-FmU5y-E-67">
          <mxGeometry relative="1" as="geometry">
            <mxPoint x="170" y="240" as="targetPoint" />
          </mxGeometry>
        </mxCell>
        <mxCell id="-fmFSv4kXS4S-FmU5y-E-70" style="edgeStyle=orthogonalEdgeStyle;rounded=0;orthogonalLoop=1;jettySize=auto;html=1;" edge="1" parent="1" source="-fmFSv4kXS4S-FmU5y-E-67">
          <mxGeometry relative="1" as="geometry">
            <mxPoint x="660" y="240.0000000000001" as="targetPoint" />
          </mxGeometry>
        </mxCell>
        <mxCell id="-fmFSv4kXS4S-FmU5y-E-67" value="" style="line;strokeWidth=1;rotatable=0;dashed=0;labelPosition=right;align=left;verticalAlign=middle;spacingTop=0;spacingLeft=6;points=[];portConstraint=eastwest;" vertex="1" parent="1">
          <mxGeometry x="164" y="260" width="500" height="10" as="geometry" />
        </mxCell>
        <mxCell id="-fmFSv4kXS4S-FmU5y-E-73" value="End" style="strokeWidth=2;html=1;shape=mxgraph.flowchart.terminator;whiteSpace=wrap;" vertex="1" parent="1">
          <mxGeometry x="155" y="1110" width="50" height="40" as="geometry" />
        </mxCell>
      </root>
    </mxGraphModel>
  </diagram>
</mxfile>
